<svg xmlns="http://www.w3.org/2000/svg" width="265" height="80" viewBox="0 0 265 80">
  <g id="グループ_4543" data-name="グループ 4543" transform="translate(0 -0.488)">
    <rect id="長方形_3889" data-name="長方形 3889" width="265" height="80" transform="translate(0 0.488)" fill="none"/>
    <g id="グループ_4542" data-name="グループ 4542" transform="translate(9 15.501)">
      <circle id="楕円形_33" data-name="楕円形 33" cx="6" cy="6" r="6" transform="translate(6 21.987)" fill="#ffd200"/>
      <ellipse id="楕円形_35" data-name="楕円形 35" cx="6.5" cy="5.5" rx="6.5" ry="5.5" transform="translate(11 11.987)" fill="#b40000"/>
      <ellipse id="楕円形_40" data-name="楕円形 40" cx="6.5" cy="6" rx="6.5" ry="6" transform="translate(11 31.987)" fill="#1a237e"/>
      <circle id="楕円形_36" data-name="楕円形 36" cx="5.5" cy="5.5" r="5.5" transform="translate(0 11.987)" fill="#b40000"/>
      <ellipse id="楕円形_39" data-name="楕円形 39" cx="5.5" cy="6" rx="5.5" ry="6" transform="translate(0 31.987)" fill="#1a237e"/>
      <circle id="楕円形_37" data-name="楕円形 37" cx="5.5" cy="5.5" r="5.5" transform="translate(24 11.987)" fill="#b40000"/>
      <ellipse id="楕円形_41" data-name="楕円形 41" cx="5.5" cy="6" rx="5.5" ry="6" transform="translate(24 31.987)" fill="#1a237e"/>
      <ellipse id="楕円形_38" data-name="楕円形 38" cx="6.5" cy="5.5" rx="6.5" ry="5.5" transform="translate(11 0.987)" fill="#b40000"/>
      <ellipse id="楕円形_42" data-name="楕円形 42" cx="6.5" cy="5.5" rx="6.5" ry="5.5" transform="translate(11 43.987)" fill="#1a237e"/>
      <ellipse id="楕円形_34" data-name="楕円形 34" cx="5.5" cy="6" rx="5.5" ry="6" transform="translate(18 21.987)" fill="#ffd200"/>
    </g>
    <text id="一般社団法人_広島グリットサッカークラブ" data-name="一般社団法人 広島グリットサッカークラブ" transform="translate(59 28.488)" fill="#fff" font-size="10" font-family="NotoSansCJKjp-Medium, Noto Sans CJK JP" font-weight="500" letter-spacing="0.02em"><tspan x="0" y="0">一般社団法人 広島グリットサッカークラブ</tspan></text>
    <text id="grit_soccer_club" data-name="grit soccer club" transform="translate(59 59.488)" fill="#fff" font-size="31" font-family="FuturaPT-Demi, Futura PT" font-weight="300"><tspan x="0" y="0">grit soccer club</tspan></text>
  </g>
</svg>
