<svg xmlns="http://www.w3.org/2000/svg" width="58" height="88" viewBox="0 0 58 88">
  <g id="グループ_37" data-name="グループ 37" transform="translate(-3248.762 1871.904)">
    <ellipse id="楕円形_33" data-name="楕円形 33" cx="9.5" cy="10" rx="9.5" ry="10" transform="translate(3258.762 -1837.904)" fill="#ffd200"/>
    <ellipse id="楕円形_35" data-name="楕円形 35" cx="10" cy="9.5" rx="10" ry="9.5" transform="translate(3267.762 -1853.904)" fill="#b40000"/>
    <ellipse id="楕円形_40" data-name="楕円形 40" cx="10" cy="9.5" rx="10" ry="9.5" transform="translate(3267.762 -1820.904)" fill="#1a237e"/>
    <circle id="楕円形_36" data-name="楕円形 36" cx="9.5" cy="9.5" r="9.5" transform="translate(3248.762 -1853.904)" fill="#b40000"/>
    <circle id="楕円形_39" data-name="楕円形 39" cx="9.5" cy="9.5" r="9.5" transform="translate(3248.762 -1820.904)" fill="#1a237e"/>
    <circle id="楕円形_37" data-name="楕円形 37" cx="9.5" cy="9.5" r="9.5" transform="translate(3287.762 -1853.904)" fill="#b40000"/>
    <circle id="楕円形_41" data-name="楕円形 41" cx="9.5" cy="9.5" r="9.5" transform="translate(3287.762 -1820.904)" fill="#1a237e"/>
    <ellipse id="楕円形_38" data-name="楕円形 38" cx="10" cy="9" rx="10" ry="9" transform="translate(3267.762 -1871.904)" fill="#b40000"/>
    <ellipse id="楕円形_42" data-name="楕円形 42" cx="10" cy="9" rx="10" ry="9" transform="translate(3267.762 -1801.904)" fill="#1a237e"/>
    <ellipse id="楕円形_34" data-name="楕円形 34" cx="9.5" cy="10" rx="9.5" ry="10" transform="translate(3277.762 -1837.904)" fill="#ffd200"/>
  </g>
</svg>
