<svg xmlns="http://www.w3.org/2000/svg" width="265" height="80"><g data-name="グループ 4543"><path data-name="長方形 3889" fill="none" d="M0 0h265v80H0z"/><g data-name="グループ 4542" transform="translate(9 15.013)"><circle data-name="楕円形 33" cx="6" cy="6" r="6" transform="translate(6 21.987)" fill="#ffd200"/><ellipse data-name="楕円形 35" cx="6.5" cy="5.5" rx="6.5" ry="5.5" transform="translate(11 11.987)" fill="#b40000"/><ellipse data-name="楕円形 40" cx="6.5" cy="6" rx="6.5" ry="6" transform="translate(11 31.987)" fill="#1a237e"/><circle data-name="楕円形 36" cx="5.5" cy="5.5" r="5.5" transform="translate(0 11.987)" fill="#b40000"/><ellipse data-name="楕円形 39" cx="5.5" cy="6" rx="5.5" ry="6" transform="translate(0 31.987)" fill="#1a237e"/><circle data-name="楕円形 37" cx="5.5" cy="5.5" r="5.5" transform="translate(24 11.987)" fill="#b40000"/><ellipse data-name="楕円形 41" cx="5.5" cy="6" rx="5.5" ry="6" transform="translate(24 31.987)" fill="#1a237e"/><ellipse data-name="楕円形 38" cx="6.5" cy="5.5" rx="6.5" ry="5.5" transform="translate(11 .987)" fill="#b40000"/><ellipse data-name="楕円形 42" cx="6.5" cy="5.5" rx="6.5" ry="5.5" transform="translate(11 43.987)" fill="#1a237e"/><ellipse data-name="楕円形 34" cx="5.5" cy="6" rx="5.5" ry="6" transform="translate(18 21.987)" fill="#ffd200"/></g><text data-name="一般社団法人 広島グリットサッカークラブ" transform="translate(59 28)" fill="#fff" font-size="10" font-family="NotoSansCJKjp-Medium, Noto Sans CJK JP" font-weight="500" letter-spacing=".02em"><tspan x="0" y="0">一般社団法人 広島グリットサッカークラブ</tspan></text><text data-name="grit soccer club" transform="translate(59 59)" fill="#fff" font-size="31" font-family="FuturaPT-Demi, Futura PT" font-weight="300"><tspan x="0" y="0">grit soccer club</tspan></text></g></svg>